<svg width="38" height="39" viewBox="0 0 38 39" fill="none" xmlns="http://www.w3.org/2000/svg">
<g clip-path="url(#clip0_134_226)">
<path d="M26.125 17.125C26.125 21.0675 22.9425 24.25 19 24.25C15.0575 24.25 11.875 21.0675 11.875 17.125C11.875 13.1825 15.0575 10 19 10C22.9425 10 26.125 13.1825 26.125 17.125Z" fill="#100C08"/>
<path fill-rule="evenodd" clip-rule="evenodd" d="M38 19.5C38 29.9975 29.4975 38.5 19 38.5C8.5025 38.5 0 29.9975 0 19.5C0 9.0025 8.5025 0.5 19 0.5C29.4975 0.5 38 9.0025 38 19.5ZM9.5 33.1562C9.88 32.5245 13.5612 26.625 18.9762 26.625C24.3675 26.625 28.0725 32.5387 28.4525 33.1562C30.6609 31.6291 32.4654 29.5884 33.7106 27.2095C34.9559 24.8307 35.6047 22.185 35.6012 19.5C35.6012 10.3088 28.1675 2.875 18.9762 2.875C9.785 2.875 2.35125 10.3088 2.35125 19.5C2.35125 25.1525 5.1775 30.1637 9.5 33.1562Z" fill="#100C08"/>
</g>
<defs>
<clipPath id="clip0_134_226">
<rect width="38" height="38" fill="white" transform="translate(0 0.5)"/>
</clipPath>
</defs>
</svg>
